<svg width="426" height="441" viewBox="0 0 426 441" fill="none" xmlns="http://www.w3.org/2000/svg">
<path d="M152.11 192.375V201.25H115.548V192.375H152.11ZM127.923 175.938H139.485V243.25C139.485 245.542 139.839 247.271 140.548 248.438C141.256 249.604 142.173 250.375 143.298 250.75C144.423 251.125 145.631 251.312 146.923 251.312C147.881 251.312 148.881 251.229 149.923 251.062C151.006 250.854 151.818 250.688 152.36 250.562L152.423 260C151.506 260.292 150.298 260.562 148.798 260.812C147.339 261.104 145.568 261.25 143.485 261.25C140.652 261.25 138.048 260.688 135.673 259.562C133.298 258.438 131.402 256.562 129.985 253.938C128.61 251.271 127.923 247.688 127.923 243.188V175.938ZM173.115 192.375V260H161.49V192.375H173.115ZM160.615 174.438C160.615 172.562 161.178 170.979 162.303 169.688C163.469 168.396 165.178 167.75 167.428 167.75C169.636 167.75 171.323 168.396 172.49 169.688C173.698 170.979 174.303 172.562 174.303 174.438C174.303 176.229 173.698 177.771 172.49 179.062C171.323 180.312 169.636 180.938 167.428 180.938C165.178 180.938 163.469 180.312 162.303 179.062C161.178 177.771 160.615 176.229 160.615 174.438ZM198.12 206.812V260H186.558V192.375H197.495L198.12 206.812ZM195.37 223.625L190.558 223.438C190.599 218.812 191.287 214.542 192.62 210.625C193.953 206.667 195.828 203.229 198.245 200.312C200.662 197.396 203.537 195.146 206.87 193.562C210.245 191.938 213.974 191.125 218.058 191.125C221.391 191.125 224.391 191.583 227.058 192.5C229.724 193.375 231.995 194.792 233.87 196.75C235.787 198.708 237.245 201.25 238.245 204.375C239.245 207.458 239.745 211.229 239.745 215.688V260H228.12V215.562C228.12 212.021 227.599 209.188 226.558 207.062C225.516 204.896 223.995 203.333 221.995 202.375C219.995 201.375 217.537 200.875 214.62 200.875C211.745 200.875 209.12 201.479 206.745 202.688C204.412 203.896 202.391 205.562 200.683 207.688C199.016 209.812 197.703 212.25 196.745 215C195.828 217.708 195.37 220.583 195.37 223.625ZM271.188 253L290 192.375H302.375L275.25 270.438C274.625 272.104 273.792 273.896 272.75 275.812C271.75 277.771 270.458 279.625 268.875 281.375C267.292 283.125 265.375 284.542 263.125 285.625C260.917 286.75 258.271 287.312 255.188 287.312C254.271 287.312 253.104 287.188 251.688 286.938C250.271 286.688 249.271 286.479 248.688 286.312L248.625 276.938C248.958 276.979 249.479 277.021 250.188 277.062C250.938 277.146 251.458 277.188 251.75 277.188C254.375 277.188 256.604 276.833 258.438 276.125C260.271 275.458 261.812 274.312 263.062 272.688C264.354 271.104 265.458 268.917 266.375 266.125L271.188 253ZM257.375 192.375L274.938 244.875L277.938 257.062L269.625 261.312L244.75 192.375H257.375Z" fill="black"/>
<path d="M85.185 350.062H97.185C96.56 355.812 94.9142 360.958 92.2475 365.5C89.5808 370.042 85.81 373.646 80.935 376.312C76.06 378.938 69.9767 380.25 62.685 380.25C57.3517 380.25 52.4975 379.25 48.1225 377.25C43.7892 375.25 40.06 372.417 36.935 368.75C33.81 365.042 31.3933 360.604 29.685 355.438C28.0183 350.229 27.185 344.438 27.185 338.062V329C27.185 322.625 28.0183 316.854 29.685 311.688C31.3933 306.479 33.8308 302.021 36.9975 298.312C40.2058 294.604 44.06 291.75 48.56 289.75C53.06 287.75 58.1225 286.75 63.7475 286.75C70.6225 286.75 76.435 288.042 81.185 290.625C85.935 293.208 89.6225 296.792 92.2475 301.375C94.9142 305.917 96.56 311.188 97.185 317.188H85.185C84.6017 312.938 83.5183 309.292 81.935 306.25C80.3517 303.167 78.1017 300.792 75.185 299.125C72.2683 297.458 68.4558 296.625 63.7475 296.625C59.7058 296.625 56.1433 297.396 53.06 298.938C50.0183 300.479 47.4558 302.667 45.3725 305.5C43.3308 308.333 41.7892 311.729 40.7475 315.688C39.7058 319.646 39.185 324.042 39.185 328.875V338.062C39.185 342.521 39.6433 346.708 40.56 350.625C41.5183 354.542 42.9558 357.979 44.8725 360.938C46.7892 363.896 49.2267 366.229 52.185 367.938C55.1433 369.604 58.6433 370.438 62.685 370.438C67.81 370.438 71.8933 369.625 74.935 368C77.9767 366.375 80.2683 364.042 81.81 361C83.3933 357.958 84.5183 354.312 85.185 350.062ZM154.165 288H166.165V349.562C166.165 356.396 164.644 362.083 161.602 366.625C158.561 371.167 154.519 374.583 149.477 376.875C144.477 379.125 139.04 380.25 133.165 380.25C126.998 380.25 121.415 379.125 116.415 376.875C111.457 374.583 107.519 371.167 104.602 366.625C101.727 362.083 100.29 356.396 100.29 349.562V288H112.227V349.562C112.227 354.312 113.102 358.229 114.852 361.312C116.602 364.396 119.04 366.688 122.165 368.188C125.332 369.688 128.998 370.438 133.165 370.438C137.373 370.438 141.04 369.688 144.165 368.188C147.332 366.688 149.79 364.396 151.54 361.312C153.29 358.229 154.165 354.312 154.165 349.562V288ZM206.02 336.438H182.957L182.832 326.75H203.77C207.228 326.75 210.249 326.167 212.832 325C215.416 323.833 217.416 322.167 218.832 320C220.291 317.792 221.02 315.167 221.02 312.125C221.02 308.792 220.374 306.083 219.082 304C217.832 301.875 215.895 300.333 213.27 299.375C210.687 298.375 207.395 297.875 203.395 297.875H185.645V379H173.582V288H203.395C208.062 288 212.228 288.479 215.895 289.438C219.562 290.354 222.666 291.812 225.207 293.812C227.791 295.771 229.749 298.271 231.082 301.312C232.416 304.354 233.082 308 233.082 312.25C233.082 316 232.124 319.396 230.207 322.438C228.291 325.438 225.624 327.896 222.207 329.812C218.832 331.729 214.874 332.958 210.332 333.5L206.02 336.438ZM205.457 379H178.207L185.02 369.188H205.457C209.291 369.188 212.541 368.521 215.207 367.188C217.916 365.854 219.978 363.979 221.395 361.562C222.812 359.104 223.52 356.208 223.52 352.875C223.52 349.5 222.916 346.583 221.707 344.125C220.499 341.667 218.603 339.771 216.02 338.438C213.437 337.104 210.103 336.438 206.02 336.438H188.832L188.957 326.75H212.457L215.02 330.25C219.395 330.625 223.103 331.875 226.145 334C229.187 336.083 231.499 338.75 233.082 342C234.707 345.25 235.52 348.833 235.52 352.75C235.52 358.417 234.27 363.208 231.77 367.125C229.312 371 225.832 373.958 221.332 376C216.832 378 211.541 379 205.457 379ZM299.625 369.188V379H251.438V369.188H299.625ZM253.875 288V379H241.812V288H253.875ZM293.25 327.125V336.938H251.438V327.125H293.25ZM299 288V297.875H251.438V288H299Z" fill="#419D78"/>
<rect x="9" y="101.431" width="308.978" height="308.978" stroke="#D9D9D9" stroke-width="18" stroke-linecap="round" stroke-linejoin="round" stroke-dasharray="36 36"/>
<path d="M108.022 9.85402H417L317.978 101.431H9L108.022 9.85402Z" stroke="#D9D9D9" stroke-width="18" stroke-linecap="round" stroke-linejoin="round" stroke-dasharray="36 36"/>
<path d="M317.978 101.431L417 10.5985V319.577L317.978 410.409V101.431Z" stroke="#D9D9D9" stroke-width="18" stroke-linecap="round" stroke-linejoin="round" stroke-dasharray="36 36"/>
</svg>
